<svg xmlns="http://www.w3.org/2000/svg" width="300" height="300" baseProfile="full" version="1.1">
    <rect width="100%" height="100%" fill="#000000"/>
    <text x="150" y="79" style="font-family:Swatch It;font-size:70;fill:white;stroke:#FFFFF;" text-anchor="middle">
        12
    </text>
    <text x="269" y="172" style="font-family:Swatch It;font-size:70;fill:white;stroke:#FFFFF;" text-anchor="end">
        3
    </text>
    <text x="150" y="269" style="font-family:Swatch It;font-size:70;fill:white;stroke:#FFFFF;" text-anchor="middle">
        6
    </text>
    <text x="31" y="172" style="font-family:Swatch It;font-size:70;fill:white;stroke:#FFFFF;" text-anchor="start">
        9
    </text>
    <symbol id="number-hour-marker">
        <g transform="translate(145,1)">
            <rect width="10" height="20" fill="#FFFFFF"/>
        </g>
    </symbol>
    <symbol id="hour-marker">
        <g transform="rotate(30, 150, 150)">
            <g transform="translate(144, 1)">
                <polygon fill="#FFFFFF" points="0,0 12,0 9,50 3,50"/>
            </g>
        </g>
        <g transform="rotate(60, 150, 150)">
            <g transform="translate(144, 1)">
                <polygon fill="#FFFFFF" points="0,0 12,0 9,50 3,50"/>
            </g>
        </g>
    </symbol>
    <symbol id="minute-marker">
        <g transform="rotate(6, 150, 150)">
            <g transform="translate(148, 1)">
                <rect width="4" height="14" fill="#FFFFFF"/>
            </g>
        </g>
        <g transform="rotate(12, 150, 150)">
            <g transform="translate(148, 1)">
                <rect width="4" height="14" fill="#FFFFFF"/>
            </g>
        </g>
        <g transform="rotate(18, 150, 150)">
            <g transform="translate(148, 1)">
                <rect width="4" height="14" fill="#FFFFFF"/>
            </g>
        </g>
        <g transform="rotate(24, 150, 150)">
            <g transform="translate(148, 1)">
                <rect width="4" height="14" fill="#FFFFFF"/>
            </g>
        </g>
    </symbol>
    <use href="#number-hour-marker"/>
    <g transform="rotate(90, 150, 150)">
        <use href="#number-hour-marker"/>
    </g>
    <g transform="rotate(180, 150, 150)">
        <use href="#number-hour-marker"/>
    </g>
    <g transform="rotate(270, 150, 150)">
        <use href="#number-hour-marker"/>
    </g>
    <use href="#hour-marker"/>
    <g transform="rotate(90, 150, 150)">
        <use href="#hour-marker"/>
    </g>
    <g transform="rotate(180, 150, 150)">
        <use href="#hour-marker"/>
    </g>
    <g transform="rotate(270, 150, 150)">
        <use href="#hour-marker"/>
    </g>
    <use href="#minute-marker"/>
    <g transform="rotate(30, 150, 150)">
        <use href="#minute-marker"/>
    </g>
    <g transform="rotate(30, 150, 150)">
        <use href="#minute-marker"/>
    </g>
    <g transform="rotate(60, 150, 150)">
        <use href="#minute-marker"/>
    </g>
    <g transform="rotate(90, 150, 150)">
        <use href="#minute-marker"/>
    </g>
    <g transform="rotate(120, 150, 150)">
        <use href="#minute-marker"/>
    </g>
    <g transform="rotate(150, 150, 150)">
        <use href="#minute-marker"/>
    </g>
    <g transform="rotate(180, 150, 150)">
        <use href="#minute-marker"/>
    </g>
    <g transform="rotate(210, 150, 150)">
        <use href="#minute-marker"/>
    </g>
    <g transform="rotate(240, 150, 150)">
        <use href="#minute-marker"/>
    </g>
    <g transform="rotate(270, 150, 150)">
        <use href="#minute-marker"/>
    </g>
    <g transform="rotate(300, 150, 150)">
        <use href="#minute-marker"/>
    </g>
    <g transform="rotate(330, 150, 150)">
        <use href="#minute-marker"/>
    </g>
</svg>
